# xmcd CD database file
#
# Track frame offsets:
#	150
#	40128
#	67874
#	106535
#	140423
#	176244
#	202510
#
# Disc length: 3173 seconds
#
# Revision: 0
# Processed by: cddbd v1.5.2PL0 Copyright (c) Steve Scherf et al.
# Submitted via: CDex 1.79
#
DISCID=500c6307
DTITLE=Ray Anderson's Organic Quartet - Being The Point
DYEAR=2015
DGENRE=Jazz
TTITLE0=At Home In The Muddy Water
TTITLE1=Marching On (Blues For John)
TTITLE2=Child's Eyes
TTITLE3=Hot Crab Pot
TTITLE4=Being The Point
TTITLE5=Realization
TTITLE6=Instigations
EXTD=YEAR: 2015
EXTT0=
EXTT1=
EXTT2=
EXTT3=
EXTT4=
EXTT5=
EXTT6=
PLAYORDER=
